<?xml version="1.0" encoding="UTF-8"?>
<!-- Created with Inkscape (http://www.inkscape.org/) -->
<svg width="234.18" height="89.4" version="1.1" viewBox="0 0 234.18 89.4" xmlns="http://www.w3.org/2000/svg" xmlns:xlink="http://www.w3.org/1999/xlink">
 <g>
  <path transform="matrix(1.3333 0 0 -1.3333 217.98 6.4073)" d="m0 0c-1.188 0-2.369-0.264-3.473-0.79-1.956-0.929-3.432-2.564-4.157-4.603-0.726-2.04-0.613-4.24 0.316-6.195 0.93-1.956 2.564-3.433 4.604-4.158 2.041-0.726 4.241-0.615 6.195 0.316 4.036 1.919 5.759 6.763 3.841 10.8-0.93 1.955-2.565 3.432-4.604 4.157-0.889 0.315-1.806 0.473-2.722 0.473m0.013-18.224c-1.142 0-2.287 0.196-3.394 0.59-2.545 0.905-4.583 2.746-5.743 5.185-2.392 5.034-0.243 11.076 4.79 13.469 5.034 2.392 11.077 0.245 13.469-4.789 2.392-5.036 0.244-11.078-4.789-13.471-1.378-0.654-2.852-0.984-4.333-0.984" fill="#477ec0"/>
  <path transform="matrix(1.3333 0 0 -1.3333 217.98 12.311)" d="m0 0c-0.539 0-1.076-0.119-1.577-0.358-1.832-0.871-2.615-3.071-1.744-4.904 0.87-1.833 3.072-2.613 4.903-1.744 0.888 0.422 1.559 1.164 1.888 2.091 0.33 0.926 0.279 1.925-0.144 2.813v1e-3c-0.421 0.887-1.164 1.557-2.089 1.887-0.404 0.144-0.821 0.214-1.237 0.214m0.012-9.365c-2.127 0-4.171 1.198-5.143 3.243-1.344 2.831-0.136 6.228 2.693 7.574 1.372 0.651 2.913 0.731 4.346 0.222 1.43-0.51 2.577-1.545 3.228-2.916 0.652-1.371 0.731-2.914 0.222-4.344s-1.544-2.578-2.915-3.23c-0.786-0.372-1.615-0.549-2.431-0.549" fill="#0a4798"/>
  <path transform="matrix(1.3333 0 0 -1.3333 40.575 71.22)" d="m0 0c-1.081-0.661-2.253-0.991-3.515-0.991-2.285 0-4.088 0.81-5.411 2.434-1.322 1.622-1.984 3.696-1.984 6.22 0 1.683 0.346 3.17 1.038 4.464 0.691 1.291 1.758 2.253 3.201 2.885 1.441 0.631 3.246 0.886 5.409 0.765 0.601-0.06 1.202-0.104 1.803-0.134 0.163-9e-3 0.296-0.047 0.452-0.062v-12.426c0-0.801 0.052-1.557 0.135-2.286-0.366-0.331-0.739-0.631-1.128-0.869m21.819-0.45c-2.163-1.023-3.652-1.037-4.462-0.047-0.812 0.993-1.218 2.961-1.218 5.907v17.04c0 4.747-1.413 8.52-4.237 11.315-2.826 2.794-7.243 4.193-13.255 4.193-2.645 0-5.874-0.285-9.691-0.856-3.819-0.573-7.77-1.339-11.856-2.3v-13.343h0.45c4.207 3.425 8.174 6.325 11.902 8.699 3.726 2.375 6.492 3.561 8.295 3.561 1.202 0 2.042-0.766 2.524-2.297 0.481-1.534 0.722-4.165 0.722-7.891v-5.073c-0.222 0.085-0.442 0.171-0.677 0.25-1.353 0.452-2.736 0.795-4.147 1.037-1.413 0.239-2.749 0.362-4.013 0.362-3.307 0.178-6.402-0.316-9.286-1.49-2.886-1.172-5.183-2.914-6.898-5.227-1.712-2.316-2.568-4.975-2.568-7.98 0-2.466 0.554-4.809 1.668-7.032 1.111-2.225 2.78-4.028 5.002-5.411 2.223-1.382 4.87-2.074 7.935-2.074 2.884 0 5.411 0.587 7.573 1.759 2.165 1.172 3.861 2.585 5.095 4.237 0.363 0.487 0.672 0.962 0.955 1.431 0.478-1.629 1.221-3.028 2.245-4.181 1.923-2.162 4.599-3.246 8.025-3.246 2.945 0 5.304 0.782 7.077 2.346 1.773 1.561 2.78 3.575 3.021 6.04z" fill="#477ec0"/>
  <path transform="matrix(1.3333 0 0 -1.3333 139.63 80.476)" d="m0 0c-0.721 2.705-1.292 5.049-1.712 7.033-0.422 1.983-0.631 4.115-0.631 6.401v16.408c0 4.748-1.413 8.446-4.239 11.091-2.826 2.644-6.371 3.967-10.638 3.967-3.91 0-7.23-1.067-9.963-3.202-1.909-1.489-3.421-3.18-4.554-5.064v7.725h-17.581v-0.361l0.27-0.991c0.721-2.706 1.278-5.049 1.668-7.033 0.392-1.983 0.587-4.118 0.587-6.401v-16.139c0-2.286-0.195-4.418-0.587-6.401-0.39-1.984-0.947-4.328-1.668-7.033l-0.27-0.993v-0.36h20.195v0.36l-0.269 0.993c-0.721 2.705-1.294 5.049-1.714 7.033-0.42 1.983-0.631 4.115-0.631 6.401v20.076c2.498 1.455 4.874 2.193 7.122 2.193 2.105-0.06 3.833-0.722 5.186-1.984s2.028-3.246 2.028-5.949v-14.336c0-2.286-0.195-4.418-0.585-6.401-0.392-1.984-0.949-4.328-1.668-7.033l-0.272-0.993v-0.36h20.197v0.36z" fill="#477ec0"/>
  <path transform="matrix(1.3333 0 0 -1.3333 182.97 20.43)" d="m0 0c-2.615-0.812-4.794-2.239-6.536-4.283-1.4-1.641-2.597-3.565-3.608-5.747v9.355h-17.58v-0.362l0.27-0.991c0.721-2.705 1.278-5.049 1.668-7.032 0.392-1.984 0.587-4.118 0.587-6.402v-16.139c0-2.285-0.195-4.417-0.587-6.401-0.39-1.984-0.947-4.327-1.668-7.033l-0.27-0.992v-0.36h20.195v0.36l-0.269 0.992c-0.722 2.706-1.294 5.049-1.715 7.033-0.42 1.984-0.631 4.116-0.631 6.401v19.307c1.779 1.064 3.567 1.591 5.367 1.565 2.132-0.032 4.13-0.587 5.995-1.668 1.861-1.081 3.545-2.466 5.049-4.148h0.45l2.345 16.049c-3.426 1.141-6.447 1.308-9.062 0.496" fill="#e84632"/>
 </g>
</svg>
