<?xml version="1.0" encoding="UTF-8"?>
<!-- Created with Inkscape (http://www.inkscape.org/) -->
<svg width="380" height="334.11" version="1.1" xml:space="preserve" xmlns="http://www.w3.org/2000/svg" xmlns:cc="http://creativecommons.org/ns#" xmlns:dc="http://purl.org/dc/elements/1.1/" xmlns:rdf="http://www.w3.org/1999/02/22-rdf-syntax-ns#"><metadata><rdf:RDF><cc:Work rdf:about=""><dc:format>image/svg+xml</dc:format><dc:type rdf:resource="http://purl.org/dc/dcmitype/StillImage"/></cc:Work></rdf:RDF></metadata><g transform="matrix(1.25 0 0 -1.25 -10 344.55)"><g transform="matrix(2.474 0 0 2.474 -974.34 -1218.2)" fill="#155195"><path d="m447.34 532.17c-4.826 0-9.706-1.992-9.706-9.158v-9.706h4.311v9.635c0 4.838 3.118 5.956 5.395 5.956 2.274 0 5.394-1.118 5.394-5.956v-9.635h4.311v9.706c0 7.166-4.882 9.158-9.705 9.158"/><path d="m416.9 522.48c0-4.558 1.99-9.171 9.157-9.171h8.771v3.222h-7.65c-4.837 0-5.789 3.727-5.789 5.949 0 2.225 0.952 6.01 5.789 6.01h7.65v3.162h-8.771c-7.167 0-9.157-4.612-9.157-9.172"/><path d="m474.61 523.77h-10.4c0 1.565 0.111 5.594 5.147 5.594 5.993 0 5.253-5.594 5.253-5.594zm-10.408-2.776h15.007c0.012 0.513 0 1.359 0 1.359 0 8.169-5.355 9.816-10.217 9.816-6.839 0-9.375-4.893-9.375-9.43l-2e-3 -0.263c0-4.558 1.993-9.171 9.158-9.171h9.902v3.222h-8.782c-4.018 0-5.351 2.312-5.691 4.467"/><path d="m492.65 523.91h-2.42c-2.269 0-3.687 0.721-3.687 2.34 0 1.574 1.109 2.21 3.414 2.235h9.522v3.162h-9.488c-3.853 0-8.223-0.643-8.223-5.398 0-5.191 5.817-5.11 7.534-5.11h2.42c2.271 0 3.688-0.724 3.688-2.344 0-1.57-1.111-2.208-3.415-2.228h-9.525v-3.164h9.489c3.854 0 8.224 0.641 8.224 5.395 0 5.192-5.814 5.112-7.533 5.112"/><path d="m398.07 497.6c0-0.651 0.256-0.829 0.658-0.829 0.401 0 0.657 0.178 0.657 0.829v0.389h1.009v-0.243c0-1.446-0.687-1.966-1.666-1.966s-1.666 0.52-1.666 1.966v2.094c0 1.447 0.687 1.966 1.666 1.966s1.666-0.519 1.666-1.966v-0.015h-1.009v0.161c0 0.65-0.256 0.828-0.657 0.828-0.402 0-0.658-0.178-0.658-0.828v-2.386"/><path d="m401.26 495.86v5.863h2.763v-0.99h-1.755v-1.348h1.337v-0.991h-1.337v-1.543h1.827v-0.991h-2.835"/><path d="m405.09 495.86v5.863h1.104l1.404-3.475h0.013v3.475h0.922v-5.863h-0.966l-1.541 3.784h-0.014v-3.784h-0.922"/><path d="m412.67 501.73v-0.99h-1.177v-4.873h-1.008v4.873h-1.176v0.99h3.361"/><path d="m414.39 499.18h0.519c0.446 0 0.716 0.245 0.716 0.812 0 0.569-0.27 0.813-0.716 0.813h-0.519v-1.625zm1.359-3.313-0.877 2.388h-0.482v-2.388h-1.008v5.863h1.461c1.213 0 1.79-0.65 1.79-1.754 0-0.731-0.233-1.258-0.795-1.493l0.993-2.616h-1.082"/><path d="m417.56 495.86v5.863h2.762v-0.99h-1.753v-1.348h1.336v-0.991h-1.336v-1.543h1.825v-0.991h-2.834"/><path d="m423.57 495.86v5.863h1.103l1.404-3.475h0.014v3.475h0.92v-5.863h-0.964l-1.541 3.784h-0.015v-3.784h-0.921"/><path d="m429.21 498.09h1l-0.489 2.372h-0.015l-0.496-2.372zm-1.44-2.226 1.308 5.863h1.293l1.272-5.863h-0.964l-0.256 1.235h-1.397l-0.285-1.235h-0.971"/><path d="m434.95 501.73v-0.99h-1.177v-4.873h-1.009v4.873h-1.176v0.99h3.362"/><path d="m435.64 495.86h1.0084v5.8624h-1.0084v-5.8624z"/><path d="m438.68 497.6c0-0.651 0.257-0.829 0.659-0.829s0.657 0.178 0.657 0.829v2.386c0 0.65-0.255 0.828-0.657 0.828s-0.659-0.178-0.659-0.828v-2.386zm-1.008 2.24c0 1.447 0.687 1.966 1.667 1.966 0.979 0 1.665-0.519 1.665-1.966v-2.094c0-1.446-0.686-1.966-1.665-1.966-0.98 0-1.667 0.52-1.667 1.966v2.094"/><path d="m441.92 495.86v5.863h1.104l1.403-3.475h0.015v3.475h0.921v-5.863h-0.965l-1.543 3.784h-0.014v-3.784h-0.921"/><path d="m447.52 498.09h1.002l-0.49 2.372h-0.014l-0.498-2.372zm-1.44-2.226 1.309 5.863h1.294l1.27-5.863h-0.964l-0.256 1.235h-1.395l-0.285-1.235h-0.973"/><path d="m450.61 495.86v5.863h1.009v-4.872h1.623v-0.991h-2.632"/><path d="m457.19 496.85h0.351c0.555 0 0.877 0.293 0.877 1.169v1.543c0 0.829-0.249 1.17-0.877 1.17h-0.351v-3.882zm-1.008 4.872h1.404c1.153 0 1.797-0.552 1.84-2.03v-1.803c-0.043-1.477-0.687-2.03-1.84-2.03h-1.404v5.863"/><path d="m460.67 500.57h-0.438v1.153h1.036v-1.153l-0.459-1.201h-0.513l0.374 1.201"/><path d="m464.72 503.24-1.074-1.185h-0.739l0.679 1.185h1.134zm-2.565-7.381v5.863h2.762v-0.99h-1.753v-1.348h1.336v-0.991h-1.336v-1.543h1.825v-0.991h-2.834"/><path d="m469.01 501.73v-0.99h-1.176v-4.873h-1.009v4.873h-1.176v0.99h3.361"/><path d="m470.68 501.73v-4.101c0-0.559 0.218-0.852 0.708-0.852s0.716 0.293 0.716 0.852v4.101h1.009v-4.108c0-1.292-0.687-1.836-1.725-1.836-1.037 0-1.716 0.544-1.716 1.836v4.108h1.008"/><path d="m475.12 496.85h0.351c0.555 0 0.877 0.293 0.877 1.169v1.543c0 0.829-0.248 1.17-0.877 1.17h-0.351v-3.882zm-1.009 4.872h1.403c1.155 0 1.798-0.552 1.843-2.03v-1.803c-0.045-1.477-0.688-2.03-1.843-2.03h-1.403v5.863"/><path d="m478.09 495.86v5.863h2.764v-0.99h-1.754v-1.348h1.337v-0.991h-1.337v-1.543h1.827v-0.991h-2.837"/><path d="m483.94 500.09c-0.169 0.552-0.387 0.787-0.739 0.787-0.358 0-0.555-0.243-0.555-0.641 0-0.885 2.251-0.95 2.251-2.785 0-1.007-0.621-1.673-1.68-1.673-0.82 0-1.455 0.496-1.725 1.648l0.993 0.236c0.117-0.707 0.483-0.958 0.783-0.958 0.35 0 0.62 0.26 0.62 0.697 0 1.104-2.25 1.122-2.25 2.763 0 1.006 0.541 1.64 1.586 1.64 0.899 0 1.447-0.594 1.622-1.423l-0.906-0.291"/><path d="m490.32 500.09c-0.168 0.552-0.388 0.787-0.739 0.787-0.357 0-0.555-0.243-0.555-0.641 0-0.885 2.251-0.95 2.251-2.785 0-1.007-0.62-1.673-1.681-1.673-0.818 0-1.454 0.496-1.724 1.648l0.993 0.236c0.118-0.707 0.483-0.958 0.782-0.958 0.352 0 0.621 0.26 0.621 0.697 0 1.104-2.251 1.122-2.251 2.763 0 1.006 0.542 1.64 1.587 1.64 0.898 0 1.447-0.594 1.622-1.423l-0.906-0.291"/><path d="m493.15 499.14h0.541c0.498 0 0.745 0.278 0.745 0.829 0 0.552-0.247 0.829-0.745 0.829h-0.541v-1.658zm-1.009-3.28v5.863h1.455c1.242 0 1.848-0.65 1.848-1.754s-0.606-1.754-1.848-1.754h-0.446v-2.355h-1.009"/><path d="m496.96 498.09h1.002l-0.49 2.372h-0.016l-0.496-2.372zm-1.44-2.226 1.308 5.863h1.294l1.271-5.863h-0.965l-0.255 1.235h-1.396l-0.285-1.235h-0.972"/><path d="m502.74 501.73v-0.99h-1.177v-4.873h-1.009v4.873h-1.176v0.99h3.362"/><path d="m503.49 495.86h1.0094v5.8624h-1.0094v-5.8624z"/><path d="m506.66 498.09h1.002l-0.49 2.372h-0.014l-0.498-2.372zm-1.44-2.226 1.309 5.863h1.293l1.272-5.863h-0.964l-0.257 1.235h-1.395l-0.285-1.235h-0.973"/><path d="m509.75 495.86v5.863h1.008v-4.872h1.623v-0.991h-2.631"/><path d="m513.1 495.86v5.863h2.761v-0.99h-1.753v-1.348h1.338v-0.991h-1.338v-1.543h1.826v-0.991h-2.834"/><path d="m518.99 500.09c-0.167 0.552-0.388 0.787-0.737 0.787-0.358 0-0.556-0.243-0.556-0.641 0-0.885 2.251-0.95 2.251-2.785 0-1.007-0.621-1.673-1.681-1.673-0.818 0-1.454 0.496-1.725 1.648l0.994 0.236c0.118-0.707 0.483-0.958 0.781-0.958 0.352 0 0.622 0.26 0.622 0.697 0 1.104-2.251 1.122-2.251 2.763 0 1.006 0.54 1.64 1.585 1.64 0.9 0 1.449-0.594 1.624-1.423l-0.907-0.291"/><path d="m472.05 552.7c-7.29 0.107-15.413 6.414-15.413 16.779v34.336h-2.421v-18.293c-10.503-2.279-18.328-10.986-18.328-21.402 0-12.142 10.624-21.983 23.756-21.983 9.979 0 18.498 5.718 22.018 13.814-2.248-1.954-6.11-3.297-9.612-3.251"/><path d="m459.8 586.1c1.005 0.121 13.179-0.039 20.289-10.807 2.395-3.626 0.059-8.155-7.151-8.397-2.572-0.085-11.77 2.251-13.138 19.204"/></g></g></svg>
